<svg xmlns="http://www.w3.org/2000/svg" viewBox="0 0 32 32" width="32" height="32">
  <defs>
    <!-- Simplified gradients for smaller sizes -->
    <linearGradient id="red" x1="0%" y1="0%" x2="100%" y2="100%">
      <stop offset="0%" style="stop-color:#fca5a5"/>
      <stop offset="100%" style="stop-color:#f87171"/>
    </linearGradient>
    <linearGradient id="blue" x1="0%" y1="0%" x2="100%" y2="100%">
      <stop offset="0%" style="stop-color:#93c5fd"/>
      <stop offset="100%" style="stop-color:#60a5fa"/>
    </linearGradient>
    <linearGradient id="green" x1="0%" y1="0%" x2="100%" y2="100%">
      <stop offset="0%" style="stop-color:#86efac"/>
      <stop offset="100%" style="stop-color:#4ade80"/>
    </linearGradient>
    <linearGradient id="yellow" x1="0%" y1="0%" x2="100%" y2="100%">
      <stop offset="0%" style="stop-color:#fde047"/>
      <stop offset="100%" style="stop-color:#facc15"/>
    </linearGradient>
    <linearGradient id="orange" x1="0%" y1="0%" x2="100%" y2="100%">
      <stop offset="0%" style="stop-color:#fdba74"/>
      <stop offset="100%" style="stop-color:#fb923c"/>
    </linearGradient>
    <linearGradient id="white" x1="0%" y1="0%" x2="100%" y2="100%">
      <stop offset="0%" style="stop-color:#ffffff"/>
      <stop offset="100%" style="stop-color:#f1f5f9"/>
    </linearGradient>
  </defs>
  
  <!-- Simplified 3D cube for small sizes -->
  <g transform="translate(2, 6)">
    <!-- Top face -->
    <polygon points="5,0 14,0 19,3 10,3" fill="url(#yellow)" stroke="#1f2937" stroke-width="0.5"/>
    <polygon points="14,0 23,0 28,3 19,3" fill="url(#green)" stroke="#1f2937" stroke-width="0.5"/>
    
    <!-- Front face -->
    <rect x="5" y="3" width="9" height="9" fill="url(#red)" stroke="#1f2937" stroke-width="0.5"/>
    <rect x="14" y="3" width="9" height="9" fill="url(#blue)" stroke="#1f2937" stroke-width="0.5"/>
    <rect x="5" y="12" width="9" height="9" fill="url(#green)" stroke="#1f2937" stroke-width="0.5"/>
    <rect x="14" y="12" width="9" height="9" fill="url(#orange)" stroke="#1f2937" stroke-width="0.5"/>
    
    <!-- Right face -->
    <polygon points="23,3 28,0 28,9 23,12" fill="url(#white)" stroke="#1f2937" stroke-width="0.5"/>
    <polygon points="23,12 28,9 28,18 23,21" fill="url(#blue)" stroke="#1f2937" stroke-width="0.5"/>
    
    <!-- Highlights for 3D effect -->
    <rect x="5" y="3" width="9" height="9" fill="white" opacity="0.2"/>
    <rect x="14" y="3" width="9" height="9" fill="white" opacity="0.2"/>
  </g>
</svg>