<svg xmlns="http://www.w3.org/2000/svg" viewBox="0 0 64 64" width="64" height="64">
  <defs>
    <!-- Gradients for cube faces -->
    <linearGradient id="redGrad" x1="0%" y1="0%" x2="100%" y2="100%">
      <stop offset="0%" style="stop-color:#fca5a5;stop-opacity:1" />
      <stop offset="100%" style="stop-color:#f87171;stop-opacity:1" />
    </linearGradient>
    <linearGradient id="blueGrad" x1="0%" y1="0%" x2="100%" y2="100%">
      <stop offset="0%" style="stop-color:#93c5fd;stop-opacity:1" />
      <stop offset="100%" style="stop-color:#60a5fa;stop-opacity:1" />
    </linearGradient>
    <linearGradient id="greenGrad" x1="0%" y1="0%" x2="100%" y2="100%">
      <stop offset="0%" style="stop-color:#86efac;stop-opacity:1" />
      <stop offset="100%" style="stop-color:#4ade80;stop-opacity:1" />
    </linearGradient>
    <linearGradient id="yellowGrad" x1="0%" y1="0%" x2="100%" y2="100%">
      <stop offset="0%" style="stop-color:#fde047;stop-opacity:1" />
      <stop offset="100%" style="stop-color:#facc15;stop-opacity:1" />
    </linearGradient>
    <linearGradient id="orangeGrad" x1="0%" y1="0%" x2="100%" y2="100%">
      <stop offset="0%" style="stop-color:#fdba74;stop-opacity:1" />
      <stop offset="100%" style="stop-color:#fb923c;stop-opacity:1" />
    </linearGradient>
    <linearGradient id="whiteGrad" x1="0%" y1="0%" x2="100%" y2="100%">
      <stop offset="0%" style="stop-color:#ffffff;stop-opacity:1" />
      <stop offset="100%" style="stop-color:#f1f5f9;stop-opacity:1" />
    </linearGradient>
    
    <!-- Shadow filters -->
    <filter id="shadow" x="-20%" y="-20%" width="140%" height="140%">
      <feDropShadow dx="1" dy="2" stdDeviation="1" flood-color="#000" flood-opacity="0.2"/>
    </filter>
    <filter id="innerShadow" x="-20%" y="-20%" width="140%" height="140%">
      <feOffset dx="0" dy="0"/>
      <feGaussianBlur stdDeviation="0.5" result="offset-blur"/>
      <feFlood flood-color="#000" flood-opacity="0.1"/>
      <feComposite in2="offset-blur" operator="in"/>
    </filter>
  </defs>
  
  <!-- 3D Cube faces -->
  
  <!-- Back face (darkest) -->
  <g transform="translate(8, 8)" opacity="0.6">
    <rect x="0" y="0" width="12" height="12" fill="url(#blueGrad)" stroke="#475569" stroke-width="0.5" rx="1"/>
    <rect x="13" y="0" width="12" height="12" fill="url(#redGrad)" stroke="#475569" stroke-width="0.5" rx="1"/>
    <rect x="26" y="0" width="12" height="12" fill="url(#greenGrad)" stroke="#475569" stroke-width="0.5" rx="1"/>
    <rect x="0" y="13" width="12" height="12" fill="url(#yellowGrad)" stroke="#475569" stroke-width="0.5" rx="1"/>
    <rect x="13" y="13" width="12" height="12" fill="url(#orangeGrad)" stroke="#475569" stroke-width="0.5" rx="1"/>
    <rect x="26" y="13" width="12" height="12" fill="url(#whiteGrad)" stroke="#475569" stroke-width="0.5" rx="1"/>
    <rect x="0" y="26" width="12" height="12" fill="url(#greenGrad)" stroke="#475569" stroke-width="0.5" rx="1"/>
    <rect x="13" y="26" width="12" height="12" fill="url(#blueGrad)" stroke="#475569" stroke-width="0.5" rx="1"/>
    <rect x="26" y="26" width="12" height="12" fill="url(#redGrad)" stroke="#475569" stroke-width="0.5" rx="1"/>
  </g>
  
  <!-- Right face (medium) -->
  <g transform="translate(48, 12)" opacity="0.8">
    <polygon points="0,0 8,0 8,12 0,12" fill="url(#orangeGrad)" stroke="#475569" stroke-width="0.5"/>
    <polygon points="0,13 8,13 8,25 0,25" fill="url(#blueGrad)" stroke="#475569" stroke-width="0.5"/>
    <polygon points="0,26 8,26 8,38 0,38" fill="url(#whiteGrad)" stroke="#475569" stroke-width="0.5"/>
  </g>
  
  <!-- Top face (brightest) -->
  <g transform="translate(16, 4)">
    <polygon points="0,8 8,0 20,0 12,8" fill="url(#yellowGrad)" stroke="#475569" stroke-width="0.5"/>
    <polygon points="12,8 20,0 32,0 24,8" fill="url(#greenGrad)" stroke="#475569" stroke-width="0.5"/>
    <polygon points="24,8 32,0 44,0 36,8" fill="url(#redGrad)" stroke="#475569" stroke-width="0.5"/>
  </g>
  
  <!-- Front face (main face) -->
  <g transform="translate(16, 12)" filter="url(#shadow)">
    <!-- 3x3 grid of squares -->
    <rect x="0" y="0" width="12" height="12" fill="url(#redGrad)" stroke="#1f2937" stroke-width="0.8" rx="1.5"/>
    <rect x="13" y="0" width="12" height="12" fill="url(#blueGrad)" stroke="#1f2937" stroke-width="0.8" rx="1.5"/>
    <rect x="26" y="0" width="12" height="12" fill="url(#greenGrad)" stroke="#1f2937" stroke-width="0.8" rx="1.5"/>
    
    <rect x="0" y="13" width="12" height="12" fill="url(#yellowGrad)" stroke="#1f2937" stroke-width="0.8" rx="1.5"/>
    <rect x="13" y="13" width="12" height="12" fill="url(#orangeGrad)" stroke="#1f2937" stroke-width="0.8" rx="1.5"/>
    <rect x="26" y="13" width="12" height="12" fill="url(#whiteGrad)" stroke="#1f2937" stroke-width="0.8" rx="1.5"/>
    
    <rect x="0" y="26" width="12" height="12" fill="url(#greenGrad)" stroke="#1f2937" stroke-width="0.8" rx="1.5"/>
    <rect x="13" y="26" width="12" height="12" fill="url(#blueGrad)" stroke="#1f2937" stroke-width="0.8" rx="1.5"/>
    <rect x="26" y="26" width="12" height="12" fill="url(#redGrad)" stroke="#1f2937" stroke-width="0.8" rx="1.5"/>
    
    <!-- Highlight overlays for 3D effect -->
    <rect x="0" y="0" width="12" height="12" fill="url(#whiteGrad)" opacity="0.3" rx="1.5"/>
    <rect x="13" y="0" width="12" height="12" fill="url(#whiteGrad)" opacity="0.3" rx="1.5"/>
    <rect x="26" y="0" width="12" height="12" fill="url(#whiteGrad)" opacity="0.3" rx="1.5"/>
    <rect x="0" y="13" width="12" height="12" fill="url(#whiteGrad)" opacity="0.3" rx="1.5"/>
    <rect x="13" y="13" width="12" height="12" fill="url(#whiteGrad)" opacity="0.3" rx="1.5"/>
    <rect x="26" y="13" width="12" height="12" fill="url(#whiteGrad)" opacity="0.3" rx="1.5"/>
    <rect x="0" y="26" width="12" height="12" fill="url(#whiteGrad)" opacity="0.3" rx="1.5"/>
    <rect x="13" y="26" width="12" height="12" fill="url(#whiteGrad)" opacity="0.3" rx="1.5"/>
    <rect x="26" y="26" width="12" height="12" fill="url(#whiteGrad)" opacity="0.3" rx="1.5"/>
  </g>
</svg>